<svg xmlns="http://www.w3.org/2000/svg" viewBox="0 0 64 64" width="64" height="64">
  <rect width="64" height="64" rx="12" fill="#fafaf6"></rect>
  <g stroke="#4a5532" stroke-width="1.4" fill="none" opacity="0.9">
    <line x1="10" y1="12" x2="32" y2="32"></line>
    <line x1="32" y1="10" x2="32" y2="32"></line>
    <line x1="54" y1="12" x2="32" y2="32"></line>
    <line x1="10" y1="54" x2="32" y2="32"></line>
    <line x1="54" y1="54" x2="32" y2="32"></line>
    <line x1="32" y1="54" x2="32" y2="32"></line>
    <line x1="10" y1="32" x2="32" y2="32"></line>
    <line x1="54" y1="32" x2="32" y2="32"></line>
  </g>
  <g fill="#b8c08c" stroke="#4a5532" stroke-width="1.2">
    <circle cx="10" cy="12" r="3"></circle>
    <circle cx="32" cy="10" r="3"></circle>
    <circle cx="54" cy="12" r="3"></circle>
    <circle cx="10" cy="32" r="3"></circle>
    <circle cx="54" cy="32" r="3"></circle>
    <circle cx="10" cy="54" r="3"></circle>
    <circle cx="32" cy="54" r="3"></circle>
    <circle cx="54" cy="54" r="3"></circle>
  </g>
  <circle cx="32" cy="32" r="6" fill="#606d3d" stroke="#2e3422" stroke-width="1.5"></circle>
</svg>